<svg xmlns="http://www.w3.org/2000/svg" width="280" height="56" viewBox="0 0 280 56">
  <rect width="280" height="56" rx="12" fill="#2563eb"/>
  <g transform="translate(52, 8) scale(2.85)">
    <path fill="white" fill-rule="evenodd" clip-rule="evenodd" d="M2.042.616a.704.704 0 00-.66.729L1.816 12.9c.014.367.306.66.672.677l9.395.422h.032a.704.704 0 00.704-.703V.704c0-.015 0-.03-.002-.044a.704.704 0 00-.746-.659l-.773.049.057 1.615a.105.105 0 01-.17.086l-.52-.41-.617.468a.105.105 0 01-.168-.088L9.746.134 2.042.616zm8.003 4.747c-.247.192-2.092.324-2.092.05.04-1.045-.429-1.091-.689-1.091-.247 0-.662.075-.662.634 0 .57.607.893 1.32 1.27 1.014.538 2.24 1.188 2.24 2.823 0 1.568-1.273 2.433-2.898 2.433-1.676 0-3.141-.678-2.976-3.03.065-.275 2.197-.21 2.197 0-.026.971.195 1.256.753 1.256.43 0 .624-.236.624-.634 0-.602-.633-.958-1.361-1.367-.987-.554-2.148-1.205-2.148-2.7 0-1.494 1.027-2.489 2.86-2.489 1.832 0 2.832.98 2.832 2.845z"/>
  </g>
  <text x="170" y="36" text-anchor="middle" font-family="-apple-system,BlinkMacSystemFont,'Segoe UI',Helvetica,Arial,sans-serif" font-size="24" font-weight="600" fill="white">Live Demo</text>
</svg>
